<?xml version="1.0" encoding="utf-8"?>
<!-- Generator: Adobe Illustrator 24.3.0, SVG Export Plug-In . SVG Version: 6.00 Build 0)  -->
<svg version="1.1" id="Isolation_Mode" xmlns="http://www.w3.org/2000/svg" xmlns:xlink="http://www.w3.org/1999/xlink" x="0px"
	 y="0px" viewBox="0 0 1920 1080" style="enable-background:new 0 0 1920 1080;" xml:space="preserve">
<style type="text/css">
	.st0{fill:#FFFFFF;}
	.st1{fill:#F7C700;}
</style>
<path class="st0" d="M695.1,540.1c0-9.1,7.5-16.2,21.1-16.2c9.8,0,15.3,2.6,16.7,7.9h0.1v-19h5.7v43.6H733c0.2-2.9,0.3-6.2,0.3-9
	h-0.1c-1.6,5.9-7.3,9.7-17,9.7C702.9,557,695.1,550.5,695.1,540.1 M732.9,540.5v-1c0-6.1-5.3-10.6-16.8-10.6
	c-10.3,0-15.4,4.8-15.4,11.1c0,7.3,5.7,11.9,15.4,11.9C727.5,552,732.9,545.4,732.9,540.5"/>
<path class="st0" d="M746.9,512.8h6.4v6.8h-6.4V512.8z M747.2,524.6h5.7v31.8h-5.7V524.6z"/>
<path class="st0" d="M802.3,559.5c0,5.7-4.9,10.9-21.4,10.9c-17.9,0-22.3-4.6-22.3-9.9c0-3.7,3.2-6.4,8.4-6.2l0.1-0.1
	c-2.1-1.6-2.7-3.7-2.7-5.3c0-2.4,0.7-4.3,2.2-5.3v-0.1c-3.7-1.8-5.7-4.7-5.7-8.8c0-5.9,5.4-10.9,17.8-10.9c4.8,0,8.8,0.8,11.8,2.2
	l0.1-0.1c-0.6-0.6-1.2-1.7-1.2-2.9c0-2.4,2.1-4.6,7.1-4.6c1.6,0,3.1,0.3,3.7,0.5v4.8c-0.6-0.2-2.1-0.5-3.5-0.5
	c-2.6,0-3.6,1.5-3.6,2.7c0,0.8,0.2,1.5,0.7,2.4c1.7,1.7,2.7,3.9,2.7,6.5c0,6.1-5.7,10.9-17.8,10.9c-3.2,0-6.1-0.3-8.5-0.9
	c-0.3,0.4-1,1.4-1,2.8c0,2,1.4,3.8,5.2,3.8h15.5C799.7,551.6,802.3,555.7,802.3,559.5 M796.6,560.1c0-2.2-1.7-3.7-8.6-3.7h-13.5
	c-7.9,0-10.4,1.5-10.4,4.2c0,3,3.9,5.1,16.7,5.1C792.9,565.7,796.6,563.7,796.6,560.1 M766.2,534.9c0,3.9,4,6.2,12.4,6.2
	s12.4-2.6,12.4-6.2c0-3.7-4.2-6.2-12.4-6.2C769.9,528.7,766.2,531.5,766.2,534.9"/>
<path class="st0" d="M807.5,512.8h6.4v6.8h-6.4V512.8z M807.9,524.6h5.7v31.8h-5.7V524.6z"/>
<path class="st0" d="M825,544v-14.4h-6.8v-5h5.3c1.2,0,1.5-0.6,1.7-2.1l0.4-5.1h5v7.2h19.6v5h-19.6v14c0,5.2,2.4,8,11.7,8
	c2.7,0,6.2-0.5,7.8-0.8v4.9c-1.2,0.4-4.5,1-8,1C829.5,556.6,825,551.2,825,544"/>
<path class="st0" d="M855.5,547c0-7,6.6-8.4,13.7-8.4h20.2v-0.8c0-5.9-4.3-9.1-14.3-9.1c-9.6,0-13.1,2.6-13.1,6.1
	c0,0.2,0,0.4,0.1,0.8h-5.4c-0.1-0.6-0.1-1-0.1-1.1c0-6.3,6.1-10.6,18.5-10.6c13.3,0,20,5.9,20,14.5v18h-5.7c0.2-2.2,0.3-5.7,0.4-8.2
	h-0.1c-1.5,5.5-6.6,8.8-17.9,8.8C860.4,557,855.5,552.4,855.5,547 M889.4,542.9L889.4,542.9l-19.5-0.1c-5.6,0-9,0.4-9,4.1
	c0,2.3,1.5,5.3,11.3,5.3C884.3,552.2,889.4,547.6,889.4,542.9"/>
<rect x="903.2" y="512.8" class="st0" width="5.7" height="43.6"/>
<path class="st0" d="M920,534.7h-5.3v-10.1h5.3v-2.4c0-8.3,7.1-12.7,17.6-12.7c4.7,0,8.7,0.8,10.5,1.4v9.1c-1.5-0.3-4.6-0.8-7.3-0.8
	c-4.4,0-6.1,1.4-6.1,4v1.4h14v10.1h-14v21.7H920V534.7z"/>
<path class="st0" d="M951.1,547.4c0-4.7,3-8.9,11.8-8.9H979v-1c0-3.2-1.9-4.8-7.3-4.8c-5.1,0-6.4,1.5-6.4,3.2c0,0.1,0,0.3,0.1,0.6
	h-13.1c-0.1-0.5-0.1-1.2-0.1-1.5c0-6.4,5.5-11,20.2-11c14.8,0,21.5,5.6,21.5,14.4v18.1H979c0.1-1.9,0.3-4.6,0.3-6.5h-0.1
	c-1.3,4.1-4.8,7.1-13.9,7.1C954.3,557,951.1,551.7,951.1,547.4 M979,544.7v-0.5h-10.2c-3.1,0-4.4,0.6-4.4,2.3c0,1.6,1.7,2.8,6.1,2.8
	C976,549.3,978.9,546.8,979,544.7"/>
<path class="st0" d="M997.6,540.5c0-9.1,7.3-16.6,22-16.6c15.2,0,20.6,6.6,20.6,14.6h-12.8c-0.1-2.6-2.1-4.9-7.2-4.9
	c-5.3,0-7.8,2.8-7.8,6.9c0,4.1,2.3,6.9,7.7,6.9c5.3,0,7.3-2.1,7.5-4.7h12.7c0,7.7-5.3,14.4-21.3,14.4
	C1003.5,557,997.6,548.6,997.6,540.5"/>
<path class="st0" d="M1047.1,544.2v-9.5h-5.3v-10.1h4.4c2,0,2.8-0.9,3.1-3.2l0.6-4.1h12.1v7.2h14.4v10.1H1062v8.4c0,3.1,1.7,4,7.5,4
	c2.4,0,5.1-0.3,6.5-0.5v9.5c-1.6,0.4-5.5,0.8-10.1,0.8C1051.6,557,1047.1,551.6,1047.1,544.2"/>
<path class="st0" d="M1078.8,540.5c0-8.6,6.3-16.6,22.9-16.6s22.9,8.1,22.9,16.6c0,8.6-6.2,16.5-22.9,16.5
	C1084.9,557,1078.8,549.2,1078.8,540.5 M1109.7,540.5c0-3.8-2.1-7-8.1-7s-8,3.2-8,7c0,3.6,2.1,6.8,8,6.8
	C1107.5,547.4,1109.7,544.2,1109.7,540.5"/>
<path class="st0" d="M1128.6,524.6h14.8l-0.3,9h0.2c1.7-5.2,5.6-9.6,13.5-9.6c10,0,13,5.4,13,13.5c0,2.9-0.2,5.9-0.3,7.4h-12.9
	c0.1-0.8,0.1-2.1,0.1-3.2c0-4.1-1.3-6.4-5.4-6.4c-5.4,0-7.8,4.2-7.8,8.9v12.2h-14.8L1128.6,524.6L1128.6,524.6z"/>
<path class="st0" d="M1178.1,569.3v-9.1c1,0.2,3.3,0.5,5.5,0.5c3.4,0,5.2-0.8,6.9-4.4h-2.9l-16.5-31.8h16.9l9.1,18.8h0.1l8.2-18.8
	h13.9l-14.7,32.8c-4.4,9.8-9.1,13.1-18.2,13.1C1183.3,570.4,1179.9,569.8,1178.1,569.3"/>
<path class="st1" d="M1225.9,551.1c0-3.3-2.6-5.9-5.9-5.9s-5.9,2.6-5.9,5.9c0,3.3,2.6,5.9,5.9,5.9S1225.9,554.4,1225.9,551.1"/>
</svg>
